HIERARCHY
ROOT pelvis
{
	OFFSET 0.000000 0.000000 0.000000
	CHANNELS 6 Xposition Yposition Zposition Zrotation Xrotation Yrotation
	JOINT lfemur
	{
		OFFSET 11.446000 0.000000 0.000000
		CHANNELS 3 Zrotation Xrotation Yrotation
		JOINT ltibia
		{
			OFFSET 0.000000 -42.030400 0.000000
			CHANNELS 3 Zrotation Xrotation Yrotation
			JOINT lfoot
			{
				OFFSET 0.000000 -39.930200 0.000000
				CHANNELS 3 Zrotation Xrotation Yrotation
				JOINT ltoes
				{
					OFFSET 0.000000 0.000000 11.775800
					CHANNELS 3 Zrotation Xrotation Yrotation
					End Site
					{
					    OFFSET 0.000000 0.000000 5.000000
					}
				}
			}
		}
	}
	JOINT rfemur
	{
		OFFSET -11.446000 0.000000 0.000000
		CHANNELS 3 Zrotation Xrotation Yrotation
		JOINT rtibia
		{
			OFFSET 0.000000 -42.030400 0.000000
			CHANNELS 3 Zrotation Xrotation Yrotation
			JOINT rfoot
			{
				OFFSET 0.000000 -39.930200 0.000000
				CHANNELS 3 Zrotation Xrotation Yrotation
				JOINT rtoes
				{
					OFFSET 0.000000 0.000000 11.775800
					CHANNELS 3 Zrotation Xrotation Yrotation
					End Site
					{
					    OFFSET 0.000000 0.000000 5.000000
					}
				}
			}
		}
	}
	JOINT thorax
	{
		OFFSET 0.000000 11.255600 -5.000000
		CHANNELS 3 Zrotation Xrotation Yrotation
		JOINT head
		{
			OFFSET 0.000000 43.799300 0.000000
			CHANNELS 3 Zrotation Xrotation Yrotation
			End Site
			{
			    OFFSET 0.000000 5.000000 0.000000
			}
		}
		JOINT lclavicle
		{
			OFFSET 0.000000 39.863000 0.000000
			CHANNELS 3 Zrotation Xrotation Yrotation
			JOINT lhumerus
			{
				OFFSET 17.380600 4.958300 0.000000
				CHANNELS 3 Zrotation Xrotation Yrotation
				JOINT lradius
				{
					OFFSET 0.000000 -27.561300 0.000000
					CHANNELS 3 Zrotation Xrotation Yrotation
					JOINT lhand
					{
						OFFSET 0.000000 -26.933000 0.000000
						CHANNELS 3 Zrotation Xrotation Yrotation
						End Site
						{
						    OFFSET 0.000000 -5.000000 0.000000
						}
					}
				}
			}
		}
		JOINT rclavicle
		{
			OFFSET 0.000000 39.863000 0.000000
			CHANNELS 3 Zrotation Xrotation Yrotation
			JOINT rhumerus
			{
				OFFSET -17.380600 4.958300 0.000000
				CHANNELS 3 Zrotation Xrotation Yrotation
				JOINT rradius
				{
					OFFSET 0.000000 -27.561300 0.000000
					CHANNELS 3 Zrotation Xrotation Yrotation
					JOINT rhand
					{
						OFFSET 0.000000 -26.933000 0.000000
						CHANNELS 3 Zrotation Xrotation Yrotation
						End Site
						{
						    OFFSET 0.000000 -5.000000 0.000000
						}
					}
				}
			}
		}
	}
}
MOTION
Frames: 6
Frame Time: 0.008342
29.622900 80.699900 8.678800 13.014069 -9.668102 -95.883871 -15.837955 -37.601265 -4.403627 0.000000 48.311465 -0.000000 -0.000000 -4.981583 3.325461 0.000000 -1.343095 -0.000000 -2.956260 -36.106193 2.575866 -0.000000 83.118618 -0.000000 -0.000000 -6.084486 -8.020076 0.000000 -29.503435 -0.000000 -15.781561 18.875423 1.930079 9.729489 9.529759 13.026272 -21.750474 0.000000 3.365011 35.894379 7.266491 12.015756 0.000003 -56.732929 -31.137025 14.905222 -9.792970 0.000000 24.312632 0.000000 2.412956 -30.786974 19.938197 -0.655562 0.000002 -68.101125 9.489707 -10.089465 -0.056815 -0.000000
28.007400 80.638500 8.619900 12.823409 -9.329065 -94.678827 -15.790338 -36.259168 -4.190543 0.000000 48.593220 -0.000000 0.000000 -5.843122 2.328245 0.000000 -1.335381 -0.000000 -2.907408 -37.562462 2.222254 -0.000000 82.799723 -0.000000 0.000000 -6.384535 -8.314023 -0.000000 -29.499733 -0.000000 -15.151145 19.174113 1.500584 9.800892 9.688171 12.022309 -21.028782 -0.000000 2.568529 33.928785 4.640668 10.005059 0.000002 -59.318852 -32.256226 14.952845 -9.870540 0.000000 24.675312 0.000000 2.473887 -31.005930 20.675573 -2.482960 0.000000 -61.135714 11.165459 -11.036616 0.262145 0.000000
26.440200 80.673900 8.517500 12.917429 -8.790291 -93.546843 -15.351683 -35.006116 -3.964205 -0.000000 48.494104 -0.000000 0.000000 -6.873893 1.234046 -0.000000 -1.334590 -0.000000 -2.557121 -39.245800 1.819690 -0.000000 82.025289 -0.000000 0.000000 -6.443266 -9.003468 0.000000 -29.498664 -0.000000 -14.247240 19.066333 0.922585 9.770413 10.144368 11.043055 -20.184484 0.000000 2.223947 31.814470 1.955410 7.441019 0.000003 -62.156086 -33.392444 14.299502 -10.269067 -0.000000 24.885106 0.000000 2.440716 -31.215772 21.217260 -3.811518 -0.000002 -54.245401 12.715805 -11.297347 0.351207 -0.000000
24.858500 80.836000 8.450100 12.931600 -8.288268 -92.393464 -15.022801 -33.384718 -4.021074 -0.000000 47.787586 -0.000000 0.000000 -7.609280 0.363133 0.000000 -1.331658 0.000000 -2.417226 -40.790240 1.279362 -0.000000 80.870536 -0.000000 0.000000 -6.125605 -9.308386 -0.000000 -29.496974 -0.000000 -13.383496 18.968983 0.131313 9.684947 10.882042 10.418516 -19.424141 -0.000000 1.993167 30.267082 -0.313631 3.724779 -0.000003 -65.487393 -33.849993 13.976383 -10.248261 -0.000000 25.223864 -0.000000 2.652082 -31.812990 22.022467 -4.543652 -0.000001 -47.736374 14.431258 -11.380682 0.380214 0.000000
23.185400 81.107400 8.378900 12.799419 -7.814951 -91.390454 -14.642001 -31.383707 -4.154590 -0.000000 46.668230 0.000000 0.000000 -8.010906 -0.426387 -0.000000 -1.332690 0.000000 -2.427236 -41.983445 0.603754 -0.000000 79.281041 -0.000000 -0.000000 -6.359363 -9.702252 -0.000000 -29.496301 -0.000000 -12.523977 18.871377 -0.498509 9.508983 11.753891 9.765454 -18.658735 0.000000 1.893322 28.601083 -2.473185 -0.307067 0.000004 -68.835889 -33.873145 13.025032 -10.638839 -0.000000 25.496711 -0.000000 2.469696 -32.456370 22.793557 -4.924572 0.000001 -42.150449 16.124202 -10.596792 0.115924 0.000000
21.519500 81.478300 8.265000 12.981883 -7.359410 -90.318182 -14.228525 -29.602656 -4.392073 0.000000 45.291120 0.000000 -0.000000 -8.016879 -1.229132 -0.000000 -1.337574 -0.000000 -2.461853 -43.335563 -0.122900 0.000000 77.326685 -0.000000 -0.000000 -6.220789 -9.972208 0.000000 -29.496967 -0.000000 -11.704149 18.518134 -1.156325 9.393445 12.565201 9.056959 -17.999406 0.000000 1.973609 27.420774 -4.669517 -4.777814 0.000003 -72.230086 -35.105587 12.035050 -11.018244 -0.000000 25.959669 -0.000000 2.134065 -33.261832 23.856070 -4.942756 0.000001 -37.720166 18.362566 -10.402057 0.052120 -0.000000
